<?xml version="1.0" standalone="no"?>
<!DOCTYPE svg PUBLIC "-//W3C//DTD SVG 20010904//EN"
 "http://www.w3.org/TR/2001/REC-SVG-20010904/DTD/svg10.dtd">
<svg version="1.0" xmlns="http://www.w3.org/2000/svg"
 width="500.000000pt" height="500.000000pt" viewBox="0 0 500.000000 500.000000"
 preserveAspectRatio="xMidYMid meet">

<g transform="translate(0.000000,500.000000) scale(0.100000,-0.100000)"
fill="#000000" stroke="none">
<m.path  d="M2119 4950 c-222 -46 -407 -142 -563 -290 -113 -108 -211 -262 -257
-404 -22 -69 -22 -87 -3 -246 9 -82 51 -225 85 -294 12 -26 16 -42 9 -46 -6
-4 0 -12 14 -19 14 -8 35 -38 50 -71 30 -67 34 -98 7 -55 -26 40 -75 96 -62
70 5 -11 21 -33 35 -48 23 -27 24 -30 9 -64 -15 -37 -11 -117 7 -128 9 -6 7
30 -4 56 -4 8 0 30 7 48 l14 33 21 -78 c15 -58 20 -67 16 -33 -6 45 -7 107 -5
183 2 57 25 31 41 -47 18 -85 52 -159 90 -195 43 -42 112 -56 241 -50 118 6
176 25 214 70 31 37 70 120 79 169 8 44 45 103 68 107 35 7 71 -32 111 -118
45 -98 86 -153 131 -178 47 -26 304 -25 363 2 67 30 110 105 134 235 14 73 33
99 64 87 14 -5 34 -84 36 -139 1 -20 3 -24 6 -12 10 45 15 51 24 30 7 -16 8
-14 4 9 -8 41 12 94 59 150 22 27 41 55 42 62 4 25 26 89 45 130 10 22 19 54
19 70 0 17 5 35 11 41 19 19 39 299 23 324 -5 8 -9 30 -10 49 -1 50 -64 180
-113 233 -22 24 -38 46 -35 49 3 3 -11 16 -31 28 -19 12 -32 27 -29 32 5 7 2
8 -5 4 -7 -5 -17 -1 -24 8 -7 9 -53 26 -104 38 -67 16 -93 26 -93 38 -1 24
-22 56 -54 81 l-29 23 19 -29 c18 -28 18 -28 -31 7 -52 37 -134 69 -223 87
-83 17 -323 12 -423 -9z m570 -676 c-26 -85 -63 -159 -94 -190 -13 -13 -23
-24 -21 -24 15 0 74 39 114 75 28 25 55 45 60 45 14 0 64 67 86 114 14 29 20
35 27 25 22 -34 58 -173 69 -262 13 -104 24 -127 36 -75 7 33 7 32 29 -33 26
-75 50 -207 41 -217 -10 -9 -72 -7 -170 6 -48 7 -107 10 -130 8 -22 -3 -94 -8
-159 -11 -84 -4 -134 -11 -175 -26 -80 -29 -153 -49 -181 -49 -13 0 -56 10
-95 22 -52 16 -93 21 -151 20 -44 -1 -112 2 -151 7 -52 6 -94 5 -155 -6 -46
-8 -103 -17 -126 -20 l-43 -6 6 49 c9 69 60 219 94 279 l30 50 0 -41 c0 -23 3
-55 6 -72 8 -40 34 -31 34 12 0 17 5 38 11 46 7 11 8 -6 3 -54 l-7 -70 41 33
c23 18 44 37 47 42 4 5 14 9 23 9 9 0 65 48 125 108 l109 107 -66 -114 c-36
-62 -66 -115 -66 -116 0 -13 178 77 251 127 50 35 101 70 113 78 11 8 38 27
59 43 20 16 37 26 37 23 0 -7 -90 -137 -113 -163 -11 -13 -16 -23 -11 -23 14
0 114 38 159 61 61 30 213 146 270 204 28 29 51 51 53 50 1 -1 -7 -33 -19 -71z
m200 -569 c63 -32 73 -148 22 -256 -50 -107 -58 -112 -189 -129 -119 -15 -215
-1 -265 41 -41 34 -99 149 -105 210 -11 114 66 146 351 148 120 1 165 -2 186
-14z m-807 -39 c21 -9 42 -25 48 -35 30 -57 -12 -212 -74 -277 -37 -38 -48
-43 -115 -54 -97 -16 -216 -9 -266 16 -59 28 -99 112 -104 215 -5 114 13 134
129 150 92 13 340 3 382 -15z m-595 -198 c-3 -8 -6 -5 -6 6 -1 11 2 17 5 13 3
-3 4 -12 1 -19z" / variants={animation} custom={1}/>
<m.path  d="M2645 3905 c-111 -24 -190 -56 -205 -85 -9 -16 -8 -20 5 -20 9 0 13
-5 9 -11 -8 -14 31 -3 64 17 12 8 22 10 22 5 0 -5 12 -4 26 4 15 7 32 11 39 9
7 -3 16 -1 20 5 9 15 117 13 195 -4 36 -7 66 -12 67 -11 2 2 -14 21 -35 44
-59 64 -93 72 -207 47z" / variants={animation} custom={2}/>
<m.path  d="M1879 3876 c-2 -2 -31 -5 -64 -7 -67 -2 -123 -34 -156 -88 l-18 -30
42 16 c47 18 223 26 299 14 30 -5 51 -4 58 3 8 8 11 7 8 -3 -2 -7 5 -15 14
-16 14 -3 15 0 5 16 -6 10 -15 19 -19 19 -5 0 -8 7 -8 16 0 8 -4 12 -10 9 -5
-3 -10 -2 -10 3 0 19 -127 62 -141 48z" / variants={animation} custom={3}/>
<m.path  d="M2545 3641 c-51 -31 -90 -91 -60 -91 8 0 12 6 9 13 -5 15 31 57 49
57 7 0 20 -13 29 -30 32 -56 119 -47 126 13 4 33 9 33 39 5 13 -12 23 -17 23
-11 0 7 18 9 48 6 58 -5 43 6 -45 36 -80 27 -177 28 -218 2z" / variants={animation} custom={4}/>
<m.path  d="M1805 3611 c-28 -10 -63 -25 -79 -33 l-30 -15 37 -5 c23 -2 33 0 29
7 -3 5 1 5 9 -2 11 -9 19 -7 39 14 l24 25 7 -27 c11 -40 28 -55 65 -55 26 0
39 8 60 34 31 39 50 37 69 -7 7 -16 15 -25 19 -19 8 14 -39 69 -75 87 -38 20
-113 18 -174 -4z" / variants={animation} custom={5}/>
<m.path  d="M3251 3700 c0 -8 4 -24 9 -35 l9 -20 0 20 c0 11 -4 27 -9 35 -9 13
-10 13 -9 0z" / variants={animation} custom={6}/>
<m.path  d="M3184 3643 c-42 -56 -47 -72 -28 -90 13 -13 15 -29 11 -77 -5 -52 -4
-56 5 -26 10 35 7 99 -7 132 -4 11 4 27 24 50 26 28 32 31 42 18 9 -13 10 -13
6 0 -6 25 -32 22 -53 -7z" / variants={animation} custom={7}/>
<m.path  d="M1354 3560 c0 -52 1 -74 3 -47 2 26 2 68 0 95 -2 26 -3 4 -3 -48z" / variants={animation} custom={8}/>
<m.path  d="M3256 3499 c-8 -42 0 -50 9 -9 4 17 5 34 2 36 -2 3 -7 -10 -11 -27z" / variants={animation} custom={9}/>
<m.path  d="M3087 3461 c-4 -18 -7 -43 -6 -55 1 -11 5 -1 10 24 5 25 7 49 6 55
-2 5 -7 -5 -10 -24z" / variants={animation} custom={10}/>
<m.path  d="M1361 3435 c0 -11 4 -27 9 -35 9 -13 10 -13 9 0 0 8 -4 24 -9 35 l-9
20 0 -20z" / variants={animation} custom={11}/>
<m.path  d="M3241 3433 c-1 -6 -4 -20 -7 -30 -5 -17 -5 -17 6 0 6 10 9 23 6 30
-3 9 -5 9 -5 0z" / variants={animation} custom={12}/>
<m.path  d="M3147 3403 c-4 -3 -7 -11 -7 -17 0 -6 5 -5 12 2 6 6 9 14 7 17 -3 3
-9 2 -12 -2z" / variants={animation} custom={13}/>
<m.path  d="M1380 3365 c0 -5 5 -17 10 -25 5 -8 10 -10 10 -5 0 6 -5 17 -10 25
-5 8 -10 11 -10 5z" / variants={animation} custom={14}/>
<m.path  d="M3065 3310 c-4 -34 -5 -63 -2 -66 2 -3 7 23 11 57 4 33 5 63 3 66 -3
2 -8 -23 -12 -57z" / variants={animation} custom={15}/>
<m.path  d="M3216 3355 c-9 -26 -7 -32 5 -12 6 10 9 21 6 23 -2 3 -7 -2 -11 -11z" / variants={animation} custom={16}/>
<m.path  d="M1510 3311 c0 -7 -4 -9 -10 -6 -5 3 -10 1 -10 -4 0 -6 4 -11 9 -11
12 0 32 -85 34 -148 1 -29 4 -52 8 -52 3 0 11 -34 18 -75 8 -41 18 -75 22 -75
11 0 11 3 0 33 -5 13 -21 95 -36 183 -23 140 -35 193 -35 155z" / variants={animation} custom={17}/>
<m.path  d="M3196 3305 c-9 -26 -7 -32 5 -12 6 10 9 21 6 23 -2 3 -7 -2 -11 -11z" / variants={animation} custom={18}/>
<m.path  d="M1400 3305 c0 -5 5 -17 10 -25 5 -8 10 -10 10 -5 0 6 -5 17 -10 25
-5 8 -10 11 -10 5z" / variants={animation} custom={19}/>
<m.path  d="M1421 3255 c1 -19 18 -51 18 -35 0 8 -4 22 -9 30 -5 8 -9 11 -9 5z" / variants={animation} custom={20}/>
<m.path  d="M3178 3237 c-3 -19 -2 -25 4 -19 6 6 8 18 6 28 -3 14 -5 12 -10 -9z" / variants={animation} custom={21}/>
<m.path  d="M2476 3227 c3 -10 9 -15 12 -12 3 3 0 11 -7 18 -10 9 -11 8 -5 -6z" / variants={animation} custom={22}/>
<m.path  d="M3052 3180 c-2 -25 -9 -74 -16 -110 -16 -73 -13 -94 4 -31 6 23 16
41 22 41 9 0 9 3 0 12 -10 10 -8 16 10 30 14 12 17 16 6 12 -14 -5 -17 2 -21
43 l-3 48 -2 -45z" / variants={animation} custom={23}/>
<m.path  d="M1441 3184 c0 -11 3 -14 6 -6 3 7 2 16 -1 19 -3 4 -6 -2 -5 -13z" / variants={animation} custom={24}/>
<m.path  d="M3144 3178 l-19 -23 23 19 c21 18 27 26 19 26 -2 0 -12 -10 -23 -22z" / variants={animation} custom={25}/>
<m.path  d="M2030 3179 c0 -20 37 -69 53 -69 7 0 4 5 -6 11 -11 6 -25 25 -33 43
-7 17 -13 24 -14 15z" / variants={animation} custom={26}/>
<m.path  d="M2463 3154 c-11 -18 -15 -30 -9 -28 14 5 42 52 35 58 -2 2 -14 -11
-26 -30z" / variants={animation} custom={27}/>
<m.path  d="M2364 3139 c-21 -11 -30 -16 -19 -13 11 4 36 10 55 13 23 4 30 9 19
13 -9 3 -33 -3 -55 -13z" / variants={animation} custom={28}/>
<m.path  d="M2135 3133 c11 -2 43 -14 71 -25 40 -16 57 -18 80 -11 27 10 26 10
-16 10 -25 0 -59 7 -77 16 -18 10 -42 16 -55 16 -20 -1 -21 -2 -3 -6z" / variants={animation} custom={29}/>
<m.path  d="M1497 3109 c7 -7 15 -10 18 -7 3 3 -2 9 -12 12 -14 6 -15 5 -6 -5z" / variants={animation} custom={30}/>
<m.path  d="M3090 3070 c8 -5 20 -10 25 -10 6 0 3 5 -5 10 -8 5 -19 10 -25 10 -5
0 -3 -5 5 -10z" / variants={animation} custom={31}/>
<m.path  d="M3200 3030 c8 -5 22 -9 30 -9 10 0 8 3 -5 9 -27 12 -43 12 -25 0z" / variants={animation} custom={32}/>
<m.path  d="M1425 3010 c-13 -6 -15 -9 -5 -9 8 0 22 4 30 9 18 12 2 12 -25 0z" / variants={animation} custom={33}/>
<m.path  d="M3278 3003 c7 -3 16 -2 19 1 4 3 -2 6 -13 5 -11 0 -14 -3 -6 -6z" / variants={animation} custom={34}/>
<m.path  d="M1370 2990 c-8 -5 -10 -10 -5 -10 6 0 17 5 25 10 8 5 11 10 5 10 -5
0 -17 -5 -25 -10z" / variants={animation} custom={35}/>
<m.path  d="M3006 2975 c-9 -26 -7 -32 5 -12 6 10 9 21 6 23 -2 3 -7 -2 -11 -11z" / variants={animation} custom={36}/>
<m.path  d="M2505 2969 c-15 -7 -10 -8 19 -3 l38 5 -7 -37 c-6 -36 -6 -37 12 -23
28 22 63 58 63 64 0 9 -104 4 -125 -6z" / variants={animation} custom={37}/>
<m.path  d="M3408 2963 c7 -3 16 -2 19 1 4 3 -2 6 -13 5 -11 0 -14 -3 -6 -6z" / variants={animation} custom={38}/>
<m.path  d="M1928 2955 c-9 -9 42 -55 86 -80 19 -10 24 -11 14 -2 -10 8 -18 27
-18 42 0 27 1 27 47 22 36 -4 43 -3 28 5 -23 13 -147 23 -157 13z" / variants={animation} custom={39}/>
<m.path  d="M2414 2945 c-17 -13 -16 -14 16 -3 43 14 49 18 24 18 -11 0 -29 -7
-40 -15z" / variants={animation} custom={40}/>
<m.path  d="M1190 2930 c-8 -5 -10 -10 -5 -10 6 0 17 5 25 10 8 5 11 10 5 10 -5
0 -17 -5 -25 -10z" / variants={animation} custom={41}/>
<m.path  d="M2122 2934 c4 -3 26 -7 50 -9 31 -3 37 -2 23 5 -22 10 -82 13 -73 4z" / variants={animation} custom={42}/>
<m.path  d="M2335 2930 l-20 -9 20 0 c11 0 29 4 40 9 l20 9 -20 0 c-11 0 -29 -4
-40 -9z" / variants={animation} custom={43}/>
<m.path  d="M2975 2910 c-9 -16 -13 -30 -11 -30 3 0 12 14 21 30 9 17 13 30 11
30 -3 0 -12 -13 -21 -30z" / variants={animation} custom={44}/>
<m.path  d="M1590 2925 c0 -5 5 -17 10 -25 5 -8 10 -10 10 -5 0 6 -5 17 -10 25
-5 8 -10 11 -10 5z" / variants={animation} custom={45}/>
<m.path  d="M3538 2923 c7 -3 16 -2 19 1 4 3 -2 6 -13 5 -11 0 -14 -3 -6 -6z" / variants={animation} custom={46}/>
<m.path  d="M1130 2910 c-8 -5 -10 -10 -5 -10 6 0 17 5 25 10 8 5 11 10 5 10 -5
0 -17 -5 -25 -10z" / variants={animation} custom={47}/>
<m.path  d="M3580 2910 c8 -5 22 -9 30 -9 10 0 8 3 -5 9 -27 12 -43 12 -25 0z" / variants={animation} custom={48}/>
<m.path  d="M1561 2903 c-1 -6 -4 -20 -7 -30 -5 -17 -5 -17 6 0 6 10 9 23 6 30
-3 9 -5 9 -5 0z" / variants={animation} custom={49}/>
<m.path  d="M1070 2890 c-8 -5 -10 -10 -5 -10 6 0 17 5 25 10 8 5 11 10 5 10 -5
0 -17 -5 -25 -10z" / variants={animation} custom={50}/>
<m.path  d="M3650 2890 c8 -5 22 -9 30 -9 10 0 8 3 -5 9 -27 12 -43 12 -25 0z" / variants={animation} custom={51}/>
<m.path  d="M1010 2870 c-8 -5 -10 -10 -5 -10 6 0 17 5 25 10 8 5 11 10 5 10 -5
0 -17 -5 -25 -10z" / variants={animation} custom={52}/>
<m.path  d="M1610 2874 c0 -11 80 -120 124 -168 41 -46 47 -60 72 -165 16 -64 28
-126 27 -138 0 -13 3 -21 7 -18 5 3 12 -4 15 -16 4 -11 8 -19 10 -17 2 2 -3
24 -11 48 -17 48 -35 134 -39 188 -3 30 -1 32 13 19 153 -130 191 -153 323
-196 64 -22 185 -28 224 -11 12 5 -11 6 -55 3 -52 -4 -95 0 -140 11 -83 22
-214 86 -265 132 -105 92 -221 215 -257 272 -38 58 -48 70 -48 56z" / variants={animation} custom={53}/>
<m.path  d="M2485 2870 c-3 -6 1 -7 9 -4 18 7 21 14 7 14 -6 0 -13 -4 -16 -10z" / variants={animation} custom={54}/>
<m.path  d="M3720 2870 c8 -5 20 -10 25 -10 6 0 3 5 -5 10 -8 5 -19 10 -25 10 -5
0 -3 -5 5 -10z" / variants={animation} custom={55}/>
<m.path  d="M2915 2813 c-42 -65 -167 -191 -250 -254 -30 -23 -55 -43 -55 -46 0
-12 106 72 183 146 l87 84 1 -39 c1 -35 2 -34 9 15 5 35 19 68 40 98 18 24 30
46 28 49 -3 2 -22 -22 -43 -53z" / variants={animation} custom={56}/>
<m.path  d="M960 2850 c-8 -5 -10 -10 -5 -10 6 0 17 5 25 10 8 5 11 10 5 10 -5 0
-17 -5 -25 -10z" / variants={animation} custom={57}/>
<m.path  d="M2050 2856 c0 -2 7 -7 16 -10 8 -3 12 -2 9 4 -6 10 -25 14 -25 6z" / variants={animation} custom={58}/>
<m.path  d="M2440 2850 c-8 -5 -10 -10 -5 -10 6 0 17 5 25 10 8 5 11 10 5 10 -5
0 -17 -5 -25 -10z" / variants={animation} custom={59}/>
<m.path  d="M3141 2844 c0 -11 3 -14 6 -6 3 7 2 16 -1 19 -3 4 -6 -2 -5 -13z" / variants={animation} custom={60}/>
<m.path  d="M3780 2850 c8 -5 20 -10 25 -10 6 0 3 5 -5 10 -8 5 -19 10 -25 10 -5
0 -3 -5 5 -10z" / variants={animation} custom={61}/>
<m.path  d="M905 2830 c-3 -6 1 -7 9 -4 18 7 21 14 7 14 -6 0 -13 -4 -16 -10z" / variants={animation} custom={62}/>
<m.path  d="M1541 2824 c0 -11 3 -14 6 -6 3 7 2 16 -1 19 -3 4 -6 -2 -5 -13z" / variants={animation} custom={63}/>
<m.path  d="M2110 2830 c8 -5 22 -9 30 -9 10 0 8 3 -5 9 -27 12 -43 12 -25 0z" / variants={animation} custom={64}/>
<m.path  d="M2375 2830 c-13 -6 -15 -9 -5 -9 8 0 22 4 30 9 18 12 2 12 -25 0z" / variants={animation} custom={65}/>
<m.path  d="M3840 2830 c8 -5 20 -10 25 -10 6 0 3 5 -5 10 -8 5 -19 10 -25 10 -5
0 -3 -5 5 -10z" / variants={animation} custom={66}/>
<m.path  d="M860 2810 c-9 -6 -10 -10 -3 -10 6 0 15 5 18 10 8 12 4 12 -15 0z" / variants={animation} custom={67}/>
<m.path  d="M2195 2810 c17 -4 41 -8 55 -8 22 0 22 1 -5 8 -16 4 -41 8 -55 8 -22
0 -22 -1 5 -8z" / variants={animation} custom={68}/>
<m.path  d="M2328 2813 c7 -3 16 -2 19 1 4 3 -2 6 -13 5 -11 0 -14 -3 -6 -6z" / variants={animation} custom={69}/>
<m.path  d="M3880 2816 c0 -2 9 -6 20 -9 11 -3 18 -1 14 4 -5 9 -34 13 -34 5z" / variants={animation} custom={70}/>
<m.path  d="M2288 2803 c7 -3 16 -2 19 1 4 3 -2 6 -13 5 -11 0 -14 -3 -6 -6z" / variants={animation} custom={71}/>
<m.path  d="M804 2781 c-18 -11 -35 -24 -39 -30 -5 -9 59 30 74 45 10 9 -6 3 -35
-15z" / variants={animation} custom={72}/>
<m.path  d="M3947 2789 c7 -7 15 -10 18 -7 3 3 -2 9 -12 12 -14 6 -15 5 -6 -5z" / variants={animation} custom={73}/>
<m.path  d="M3980 2776 c0 -3 12 -12 28 -20 15 -8 50 -33 77 -56 l50 -42 -49 47
c-45 42 -106 83 -106 71z" / variants={animation} custom={74}/>
<m.path  d="M1521 2754 c0 -11 3 -14 6 -6 3 7 2 16 -1 19 -3 4 -6 -2 -5 -13z" / variants={animation} custom={75}/>
<m.path  d="M3161 2754 c0 -11 3 -14 6 -6 3 7 2 16 -1 19 -3 4 -6 -2 -5 -13z" / variants={animation} custom={76}/>
<m.path  d="M714 2708 l-29 -33 33 29 c30 28 37 36 29 36 -2 0 -16 -15 -33 -32z" / variants={animation} custom={77}/>
<m.path  d="M1501 2674 c0 -11 3 -14 6 -6 3 7 2 16 -1 19 -3 4 -6 -2 -5 -13z" / variants={animation} custom={78}/>
<m.path  d="M664 2648 l-19 -23 23 19 c21 18 27 26 19 26 -2 0 -12 -10 -23 -22z" / variants={animation} custom={79}/>
<m.path  d="M3181 2654 c0 -11 3 -14 6 -6 3 7 2 16 -1 19 -3 4 -6 -2 -5 -13z" / variants={animation} custom={80}/>
<m.path  d="M4145 2630 c10 -11 20 -20 23 -20 3 0 -3 9 -13 20 -10 11 -20 20 -23
20 -3 0 3 -9 13 -20z" / variants={animation} custom={81}/>
<m.path  d="M2865 2600 c-4 -17 -5 -34 -2 -36 3 -3 8 9 12 26 4 17 5 34 2 36 -3
3 -8 -9 -12 -26z" / variants={animation} custom={82}/>
<m.path  d="M1482 2590 c0 -14 2 -19 5 -12 2 6 2 18 0 25 -3 6 -5 1 -5 -13z" / variants={animation} custom={83}/>
<m.path  d="M3202 2540 c0 -14 2 -19 5 -12 2 6 2 18 0 25 -3 6 -5 1 -5 -13z" / variants={animation} custom={84}/>
<m.path  d="M2845 2520 c-4 -12 -5 -24 -2 -27 3 -2 8 5 12 17 4 12 5 24 2 27 -3
2 -8 -5 -12 -17z" / variants={animation} custom={85}/>
<m.path  d="M565 2499 c-4 -6 -5 -12 -2 -15 2 -3 7 2 10 11 7 17 1 20 -8 4z" / variants={animation} custom={86}/>
<m.path  d="M2528 2473 c-37 -20 -66 -38 -64 -40 5 -5 94 40 121 61 30 23 17 18
-57 -21z" / variants={animation} custom={87}/>
<m.path  d="M4245 2480 c9 -16 18 -30 21 -30 2 0 -2 14 -11 30 -9 17 -18 30 -21
30 -2 0 2 -13 11 -30z" / variants={animation} custom={88}/>
<m.path  d="M1462 2480 c0 -14 2 -19 5 -12 2 6 2 18 0 25 -3 6 -5 1 -5 -13z" / variants={animation} custom={89}/>
<m.path  d="M2826 2465 c-9 -26 -7 -32 5 -12 6 10 9 21 6 23 -2 3 -7 -2 -11 -11z" / variants={animation} custom={90}/>
<m.path  d="M545 2459 c-4 -6 -5 -12 -2 -15 2 -3 7 2 10 11 7 17 1 20 -8 4z" / variants={animation} custom={91}/>
<m.path  d="M4270 2431 c0 -6 4 -13 10 -16 6 -3 7 1 4 9 -7 18 -14 21 -14 7z" / variants={animation} custom={92}/>
<m.path  d="M525 2419 c-4 -6 -5 -12 -2 -15 2 -3 7 2 10 11 7 17 1 20 -8 4z" / variants={animation} custom={93}/>
<m.path  d="M2410 2420 c-13 -9 -13 -10 0 -10 8 0 22 5 30 10 13 9 13 10 0 10 -8
0 -22 -5 -30 -10z" / variants={animation} custom={94}/>
<m.path  d="M2811 2423 c-1 -6 -4 -20 -7 -30 -5 -17 -5 -17 6 0 6 10 9 23 6 30
-3 9 -5 9 -5 0z" / variants={animation} custom={95}/>
<m.path  d="M505 2379 c-4 -6 -5 -12 -2 -15 2 -3 7 2 10 11 7 17 1 20 -8 4z" / variants={animation} custom={96}/>
<m.path  d="M3223 2335 c0 -33 2 -45 4 -27 2 18 2 45 0 60 -2 15 -4 0 -4 -33z" / variants={animation} custom={97}/>
<m.path  d="M1442 2355 c0 -16 2 -22 5 -12 2 9 2 23 0 30 -3 6 -5 -1 -5 -18z" / variants={animation} custom={98}/>
<m.path  d="M2787 2363 c-4 -3 -7 -11 -7 -17 0 -6 5 -5 12 2 6 6 9 14 7 17 -3 3
-9 2 -12 -2z" / variants={animation} custom={99}/>
<m.path  d="M486 2333 c-6 -14 -5 -15 5 -6 7 7 10 15 7 18 -3 3 -9 -2 -12 -12z" / variants={animation} custom={100}/>
<m.path  d="M1871 2335 c0 -5 6 -21 14 -35 8 -14 14 -20 14 -15 0 6 -6 21 -14 35
-8 14 -14 21 -14 15z" / variants={animation} custom={101}/>
<m.path  d="M2762 2305 c-17 -37 -14 -45 4 -12 9 16 14 31 11 33 -2 2 -9 -7 -15
-21z" / variants={animation} custom={102}/>
<m.path  d="M466 2295 c-9 -26 -7 -32 5 -12 6 10 9 21 6 23 -2 3 -7 -2 -11 -11z" / variants={animation} custom={103}/>
<m.path  d="M1900 2265 c0 -8 40 -76 49 -85 4 -3 21 -23 40 -45 47 -56 163 -176
166 -173 2 2 -37 46 -87 98 -49 52 -107 121 -129 154 -21 32 -39 55 -39 51z" / variants={animation} custom={104}/>
<m.path  d="M446 2245 c-9 -26 -7 -32 5 -12 6 10 9 21 6 23 -2 3 -7 -2 -11 -11z" / variants={animation} custom={105}/>
<m.path  d="M426 2195 c-9 -26 -7 -32 5 -12 6 10 9 21 6 23 -2 3 -7 -2 -11 -11z" / variants={animation} custom={106}/>
<m.path  d="M2690 2175 c-13 -14 -22 -27 -19 -29 2 -2 14 10 27 25 29 36 24 38
-8 4z" / variants={animation} custom={107}/>
<m.path  d="M3222 2150 c0 -14 2 -19 5 -12 2 6 2 18 0 25 -3 6 -5 1 -5 -13z" / variants={animation} custom={108}/>
<m.path  d="M406 2145 c-9 -26 -7 -32 5 -12 6 10 9 21 6 23 -2 3 -7 -2 -11 -11z" / variants={animation} custom={109}/>
<m.path  d="M1448 2128 c5 -5 16 -8 23 -6 8 3 3 7 -10 11 -17 4 -21 3 -13 -5z" / variants={animation} custom={110}/>
<m.path  d="M1570 2130 l-35 -7 35 -1 c19 0 49 4 65 8 l30 8 -30 0 c-16 -1 -46
-4 -65 -8z" / variants={animation} custom={111}/>
<m.path  d="M2640 2121 c-8 -10 -57 -63 -109 -117 -51 -54 -114 -123 -140 -154
-25 -30 -56 -66 -68 -80 -13 -14 -23 -29 -23 -33 0 -5 28 24 61 65 34 40 114
129 178 197 104 110 130 141 119 141 -1 0 -10 -9 -18 -19z" / variants={animation} custom={112}/>
<m.path  d="M2838 2123 c12 -2 32 -2 45 0 12 2 2 4 -23 4 -25 0 -35 -2 -22 -4z" / variants={animation} custom={113}/>
<m.path  d="M1812 2095 c0 -16 2 -22 5 -12 2 9 2 23 0 30 -3 6 -5 -1 -5 -18z" / variants={animation} custom={114}/>
<m.path  d="M2970 2110 c14 -4 34 -8 45 -8 16 0 15 2 -5 8 -14 4 -34 8 -45 8 -16
0 -15 -2 5 -8z" / variants={animation} custom={115}/>
<m.path  d="M4406 2107 c3 -10 9 -15 12 -12 3 3 0 11 -7 18 -10 9 -11 8 -5 -6z" / variants={animation} custom={116}/>
<m.path  d="M391 2103 c-1 -6 -4 -20 -7 -30 -5 -17 -5 -17 6 0 6 10 9 23 6 30 -3
9 -5 9 -5 0z" / variants={animation} custom={117}/>
<m.path  d="M3103 2093 c15 -2 37 -2 50 0 12 2 0 4 -28 4 -27 0 -38 -2 -22 -4z" / variants={animation} custom={118}/>
<m.path  d="M4421 2075 c1 -19 18 -51 18 -35 0 8 -4 22 -9 30 -5 8 -9 11 -9 5z" / variants={animation} custom={119}/>
<m.path  d="M366 2035 c-9 -26 -7 -32 5 -12 6 10 9 21 6 23 -2 3 -7 -2 -11 -11z" / variants={animation} custom={120}/>
<m.path  d="M1830 2026 c0 -2 8 -10 18 -17 15 -13 16 -12 3 4 -13 16 -21 21 -21
13z" / variants={animation} custom={121}/>
<m.path  d="M4440 2015 c0 -5 5 -17 10 -25 5 -8 10 -10 10 -5 0 6 -5 17 -10 25
-5 8 -10 11 -10 5z" / variants={animation} custom={122}/>
<m.path  d="M351 1993 c-1 -6 -4 -20 -7 -30 -5 -17 -5 -17 6 0 6 10 9 23 6 30 -3
9 -5 9 -5 0z" / variants={animation} custom={123}/>
<m.path  d="M4467 1939 c4 -13 8 -18 11 -10 2 7 -1 18 -6 23 -8 8 -9 4 -5 -13z" / variants={animation} custom={124}/>
<m.path  d="M2178 1922 c13 -17 28 -35 34 -39 7 -3 2 8 -10 25 -13 17 -28 35 -34
39 -7 3 -2 -8 10 -25z" / variants={animation} custom={125}/>
<m.path  d="M4480 1905 c0 -5 5 -17 10 -25 5 -8 10 -10 10 -5 0 6 -5 17 -10 25
-5 8 -10 11 -10 5z" / variants={animation} custom={126}/>
<m.path  d="M306 1865 c-9 -26 -7 -32 5 -12 6 10 9 21 6 23 -2 3 -7 -2 -11 -11z" / variants={animation} custom={127}/>
<m.path  d="M2235 1846 c10 -14 19 -26 22 -26 7 0 -17 39 -28 46 -6 3 -3 -5 6
-20z" / variants={animation} custom={128}/>
<m.path  d="M4501 1855 c1 -19 18 -51 18 -35 0 8 -4 22 -9 30 -5 8 -9 11 -9 5z" / variants={animation} custom={129}/>
<m.path  d="M2260 1801 c0 -6 4 -13 10 -16 6 -3 7 1 4 9 -7 18 -14 21 -14 7z" / variants={animation} custom={130}/>
<m.path  d="M4520 1795 c0 -5 5 -17 10 -25 5 -8 10 -10 10 -5 0 6 -5 17 -10 25
-5 8 -10 11 -10 5z" / variants={animation} custom={131}/>
<m.path  d="M4541 1735 c1 -19 18 -51 18 -35 0 8 -4 22 -9 30 -5 8 -9 11 -9 5z" / variants={animation} custom={132}/>
<m.path  d="M241 1669 c-7 -22 -11 -43 -8 -45 2 -2 9 14 16 37 7 22 11 43 8 45
-2 2 -9 -14 -16 -37z" / variants={animation} custom={133}/>
<m.path  d="M1168 1615 c2 -49 6 -92 8 -94 8 -9 2 145 -5 164 -5 11 -6 -20 -3
-70z" / variants={animation} custom={134}/>
<m.path  d="M3068 1627 c-19 -18 -23 -28 -16 -40 6 -11 3 -33 -8 -65 -21 -59 -13
-122 16 -122 27 0 36 -20 11 -27 -25 -6 -27 -18 -6 -27 25 -9 38 30 20 58 -14
21 -14 31 -4 65 7 23 15 41 19 41 10 0 22 -93 14 -116 -5 -18 -5 -18 10 0 9
11 16 28 16 38 0 25 17 23 25 -3 5 -14 10 -18 17 -11 12 12 -6 99 -28 144 -8
15 -14 36 -14 47 0 11 -9 25 -19 31 -26 13 -24 14 -53 -13z m45 -23 c9 -10 -4
-34 -19 -34 -8 0 -14 9 -14 20 0 19 19 27 33 14z" / variants={animation} custom={135}/>
<m.path  d="M3593 1565 c0 -38 2 -53 4 -32 2 20 2 52 0 70 -2 17 -4 1 -4 -38z" / variants={animation} custom={136}/>
<m.path  d="M4581 1590 c0 -8 4 -22 9 -30 12 -18 12 -2 0 25 -6 13 -9 15 -9 5z" / variants={animation} custom={137}/>
<m.path  d="M196 1515 c-3 -9 -6 -22 -5 -28 0 -7 5 -1 10 12 5 13 8 26 5 28 -2 2
-6 -3 -10 -12z" / variants={animation} custom={138}/>
<m.path  d="M181 1448 c0 -9 3 -20 9 -23 5 -3 7 -20 5 -38 l-5 -32 11 31 11 30
96 -28 c54 -15 102 -26 107 -24 6 2 -10 9 -35 15 -141 37 -189 55 -193 70 -4
14 -5 14 -6 -1z" / variants={animation} custom={139}/>
<m.path  d="M4623 1436 c2 -27 -4 -32 -63 -62 -73 -37 -76 -44 -5 -14 56 24 52
24 59 3 3 -13 4 -12 3 3 -1 11 4 28 11 36 9 11 10 22 2 39 -9 23 -9 23 -7 -5z" / variants={animation} custom={140}/>
<m.path  d="M1166 1387 c-4 -38 -5 -71 -2 -74 3 -4 7 9 7 28 1 21 7 3 15 -46 l13
-80 -6 94 c-8 135 -18 164 -27 78z" / variants={animation} custom={141}/>
<m.path  d="M3121 1371 c-11 -7 -9 -10 8 -16 24 -7 44 2 36 16 -8 11 -26 11 -44
0z" / variants={animation} custom={142}/>
<m.path  d="M465 1345 c22 -7 56 -15 75 -18 19 -4 8 2 -25 13 -33 11 -67 19 -75
19 -8 -1 3 -7 25 -14z" / variants={animation} custom={143}/>
<m.path  d="M175 1310 c-4 -17 -5 -34 -2 -36 2 -3 7 10 11 27 8 42 0 50 -9 9z" / variants={animation} custom={144}/>
<m.path  d="M4445 1330 c-13 -5 -14 -9 -5 -9 8 0 24 4 35 9 13 5 14 9 5 9 -8 0
-24 -4 -35 -9z" / variants={animation} custom={145}/>
<m.path  d="M3621 1315 c0 -11 4 -29 9 -40 l9 -20 0 20 c0 11 -4 29 -9 40 l-9 20
0 -20z" / variants={animation} custom={146}/>
<m.path  d="M4622 1310 c0 -14 2 -19 5 -12 2 6 2 18 0 25 -3 6 -5 1 -5 -13z" / variants={animation} custom={147}/>
<m.path  d="M625 1300 c52 -19 83 -25 71 -13 -7 8 -94 32 -111 32 -5 0 13 -9 40
-19z" / variants={animation} custom={148}/>
<m.path  d="M4370 1310 c-13 -9 -13 -10 0 -9 8 0 24 4 35 9 l20 9 -20 0 c-11 0
-27 -4 -35 -9z" / variants={animation} custom={149}/>
<m.path  d="M1151 1278 c0 -14 -4 -35 -7 -45 -5 -17 -5 -17 6 0 6 10 9 30 7 45
l-4 27 -2 -27z" / variants={animation} custom={150}/>
<m.path  d="M4285 1290 l-20 -9 20 0 c11 0 29 4 40 9 l20 9 -20 0 c-11 0 -29 -4
-40 -9z" / variants={animation} custom={151}/>
<m.path  d="M710 1276 c0 -6 102 -38 107 -33 2 3 -17 12 -43 21 -48 16 -64 19
-64 12z" / variants={animation} custom={152}/>
<m.path  d="M4205 1270 l-20 -9 20 0 c11 0 29 4 40 9 l20 9 -20 0 c-11 0 -29 -4
-40 -9z" / variants={animation} custom={153}/>
<m.path  d="M4631 1264 c0 -11 3 -14 6 -6 3 7 2 16 -1 19 -3 4 -6 -2 -5 -13z" / variants={animation} custom={154}/>
<m.path  d="M4125 1250 l-20 -9 20 0 c11 0 29 4 40 9 l20 9 -20 0 c-11 0 -29 -4
-40 -9z" / variants={animation} custom={155}/>
<m.path  d="M154 1216 c-3 -21 -4 -39 -1 -42 2 -3 8 11 11 32 4 20 5 38 2 41 -2
3 -8 -11 -12 -31z" / variants={animation} custom={156}/>
<m.path  d="M3642 1225 c0 -16 4 -41 8 -55 l8 -25 0 25 c0 14 -4 39 -8 55 l-8 30
0 -30z" / variants={animation} custom={157}/>
<m.path  d="M840 1230 c8 -5 22 -10 30 -10 13 0 13 1 0 10 -8 5 -22 10 -30 10
-13 0 -13 -1 0 -10z" / variants={animation} custom={158}/>
<m.path  d="M4045 1230 l-20 -9 20 0 c11 0 29 4 40 9 l20 9 -20 0 c-11 0 -29 -4
-40 -9z" / variants={animation} custom={159}/>
<m.path  d="M4642 1205 c0 -16 2 -22 5 -12 2 9 2 23 0 30 -3 6 -5 -1 -5 -18z" / variants={animation} custom={160}/>
<m.path  d="M900 1210 c8 -5 22 -9 30 -9 10 0 8 3 -5 9 -27 12 -43 12 -25 0z" / variants={animation} custom={161}/>
<m.path  d="M3970 1210 c-13 -9 -13 -10 0 -9 8 0 24 4 35 9 l20 9 -20 0 c-11 0
-27 -4 -35 -9z" / variants={animation} custom={162}/>
<m.path  d="M960 1190 c8 -5 22 -10 30 -10 13 0 13 1 0 10 -8 5 -22 10 -30 10
-13 0 -13 -1 0 -10z" / variants={animation} custom={163}/>
<m.path  d="M1131 1193 c-1 -6 -4 -20 -7 -30 -5 -17 -5 -17 6 0 6 10 9 23 6 30
-3 9 -5 9 -5 0z" / variants={animation} custom={164}/>
<m.path  d="M3900 1190 c-13 -9 -13 -10 0 -9 8 0 24 4 35 9 l20 9 -20 0 c-11 0
-27 -4 -35 -9z" / variants={animation} custom={165}/>
<m.path  d="M1048 1159 c42 -18 43 -20 37 -51 -8 -36 -7 -36 18 4 l16 26 -44 21
c-25 12 -50 21 -57 20 -7 0 6 -9 30 -20z" / variants={animation} custom={166}/>
<m.path  d="M3840 1170 c-13 -9 -13 -10 0 -10 8 0 22 5 30 10 13 9 13 10 0 10 -8
0 -22 -5 -30 -10z" / variants={animation} custom={167}/>
<m.path  d="M4652 1150 c0 -14 2 -19 5 -12 2 6 2 18 0 25 -3 6 -5 1 -5 -13z" / variants={animation} custom={168}/>
<m.path  d="M3743 1135 c-58 -22 -63 -23 -72 -7 -6 9 -11 12 -11 5 0 -6 7 -18 15
-26 11 -11 14 -29 10 -64 -2 -26 -2 -39 1 -28 13 48 14 51 25 35 7 -11 8 -4 3
22 -5 33 -3 39 17 47 51 19 93 39 84 40 -5 0 -38 -11 -72 -24z" / variants={animation} custom={169}/>
<m.path  d="M137 1111 c-4 -18 -7 -43 -6 -55 1 -11 5 -1 10 24 5 25 7 49 6 55 -2
5 -7 -5 -10 -24z" / variants={animation} custom={170}/>
<m.path  d="M1212 1070 c0 -19 2 -27 5 -17 2 9 2 25 0 35 -3 9 -5 1 -5 -18z" / variants={animation} custom={171}/>
<m.path  d="M4662 1060 c0 -19 2 -27 5 -17 2 9 2 25 0 35 -3 9 -5 1 -5 -18z" / variants={animation} custom={172}/>
<m.path  d="M1570 1064 c-17 -10 -18 -13 -5 -8 11 3 34 10 50 14 27 7 28 8 5 9
-14 0 -36 -7 -50 -15z" / variants={animation} custom={173}/>
<m.path  d="M1661 1076 c2 -2 20 -6 39 -10 25 -4 31 -3 20 4 -14 9 -69 15 -59 6z" / variants={animation} custom={174}/>
<m.path  d="M1066 1055 c-9 -26 -7 -32 5 -12 6 10 9 21 6 23 -2 3 -7 -2 -11 -11z" / variants={animation} custom={175}/>
<m.path  d="M1740 1056 c0 -2 7 -7 16 -10 8 -3 12 -2 9 4 -6 10 -25 14 -25 6z" / variants={animation} custom={176}/>
<m.path  d="M1520 1040 c-9 -6 -10 -10 -3 -10 6 0 15 5 18 10 8 12 4 12 -15 0z" / variants={animation} custom={177}/>
<m.path  d="M1780 1035 c0 -2 27 -18 60 -35 33 -17 60 -28 60 -25 0 2 -27 18 -60
35 -33 17 -60 28 -60 25z" / variants={animation} custom={178}/>
<m.path  d="M1475 1020 c-3 -6 1 -7 9 -4 18 7 21 14 7 14 -6 0 -13 -4 -16 -10z" / variants={animation} custom={179}/>
<m.path  d="M3721 1025 c1 -19 18 -51 18 -35 0 8 -4 22 -9 30 -5 8 -9 11 -9 5z" / variants={animation} custom={180}/>
<m.path  d="M1036 974 c-9 -26 -14 -49 -12 -51 2 -2 11 17 20 43 9 26 14 49 12
51 -2 2 -11 -17 -20 -43z" / variants={animation} custom={181}/>
<m.path  d="M4673 975 c0 -27 2 -38 4 -22 2 15 2 37 0 50 -2 12 -4 0 -4 -28z" / variants={animation} custom={182}/>
<m.path  d="M115 940 c-4 -39 -5 -73 -2 -76 2 -3 8 27 11 67 4 39 5 73 3 76 -3 2
-8 -28 -12 -67z" / variants={animation} custom={183}/>
<m.path  d="M1420 989 l-25 -20 33 16 c17 8 32 18 32 20 0 10 -16 4 -40 -16z" / variants={animation} custom={184}/>
<m.path  d="M1344 947 c-51 -27 -104 -72 -104 -87 0 -6 15 4 33 23 17 19 51 44
75 56 23 12 42 24 42 26 0 7 0 7 -46 -18z" / variants={animation} custom={185}/>
<m.path  d="M1915 960 c3 -5 11 -10 16 -10 6 0 7 5 4 10 -3 6 -11 10 -16 10 -6 0
-7 -4 -4 -10z" / variants={animation} custom={186}/>
<m.path  d="M3743 932 c2 -43 5 -45 47 -32 l25 8 -27 1 c-20 1 -28 6 -28 19 0 9
-4 23 -9 31 -6 10 -9 1 -8 -27z" / variants={animation} custom={187}/>
<m.path  d="M1232 940 c0 -14 2 -19 5 -12 2 6 2 18 0 25 -3 6 -5 1 -5 -13z" / variants={animation} custom={188}/>
<m.path  d="M3672 927 c-2 -29 -7 -40 -24 -47 -21 -8 -21 -9 -3 -9 22 0 67 17 48
18 -6 1 -14 18 -16 39 l-4 37 -1 -38z" / variants={animation} custom={189}/>
<m.path  d="M1960 940 c8 -5 20 -10 25 -10 6 0 3 5 -5 10 -8 5 -19 10 -25 10 -5
0 -3 -5 5 -10z" / variants={animation} custom={190}/>
<m.path  d="M693 933 c20 -2 54 -2 75 0 20 2 3 4 -38 4 -41 0 -58 -2 -37 -4z" / variants={animation} custom={191}/>
<m.path  d="M580 920 c-13 -9 -13 -10 0 -9 8 1 26 5 40 9 l25 8 -25 1 c-14 0 -32
-4 -40 -9z" / variants={animation} custom={192}/>
<m.path  d="M850 920 c14 -4 34 -8 45 -8 l20 -1 -20 9 c-11 5 -31 8 -45 8 l-25 0
25 -8z" / variants={animation} custom={193}/>
<m.path  d="M2010 920 c8 -5 20 -10 25 -10 6 0 3 5 -5 10 -8 5 -19 10 -25 10 -5
0 -3 -5 5 -10z" / variants={animation} custom={194}/>
<m.path  d="M3855 921 c-16 -4 30 -6 104 -6 74 0 122 3 105 6 -38 9 -171 8 -209
0z" / variants={animation} custom={195}/>
<m.path  d="M940 900 c8 -5 20 -10 25 -10 6 0 3 5 -5 10 -8 5 -19 10 -25 10 -5 0
-3 -5 5 -10z" / variants={animation} custom={196}/>
<m.path  d="M2060 900 c8 -5 20 -10 25 -10 6 0 3 5 -5 10 -8 5 -19 10 -25 10 -5
0 -3 -5 5 -10z" / variants={animation} custom={197}/>
<m.path  d="M4125 900 c11 -5 27 -9 35 -9 13 -1 13 0 0 9 -8 5 -24 9 -35 9 l-20
0 20 -9z" / variants={animation} custom={198}/>
<m.path  d="M1000 880 c8 -5 22 -10 30 -10 13 0 13 1 0 10 -8 5 -22 10 -30 10
-13 0 -13 -1 0 -10z" / variants={animation} custom={199}/>
<m.path  d="M1504 868 l-19 -23 23 19 c21 18 27 26 19 26 -2 0 -12 -10 -23 -22z" / variants={animation} custom={200}/>
<m.path  d="M2110 880 c8 -5 22 -10 30 -10 13 0 13 1 0 10 -8 5 -22 10 -30 10
-13 0 -13 -1 0 -10z" / variants={animation} custom={201}/>
<m.path  d="M4195 880 c27 -12 43 -12 25 0 -8 5 -22 9 -30 9 -10 0 -8 -3 5 -9z" / variants={animation} custom={202}/>
<m.path  d="M2170 860 c8 -5 22 -9 30 -9 10 0 8 3 -5 9 -27 12 -43 12 -25 0z" / variants={animation} custom={203}/>
<m.path  d="M3545 860 c-18 -8 -18 -9 5 -9 14 0 34 4 45 9 18 8 18 9 -5 9 -14 0
-34 -4 -45 -9z" / variants={animation} custom={204}/>
<m.path  d="M4683 800 c0 -36 2 -50 4 -32 2 17 2 47 0 65 -2 17 -4 3 -4 -33z" / variants={animation} custom={205}/>
<m.path  d="M1450 829 c-22 -18 -22 -19 -3 -10 12 6 25 16 28 21 9 15 3 12 -25
-11z" / variants={animation} custom={206}/>
<m.path  d="M2235 840 c11 -5 27 -9 35 -9 9 0 8 4 -5 9 -11 5 -27 9 -35 9 -9 0
-8 -4 5 -9z" / variants={animation} custom={207}/>
<m.path  d="M3430 840 c-24 -8 -24 -8 5 -8 17 0 41 4 55 8 24 8 24 8 -5 8 -16 0
-41 -4 -55 -8z" / variants={animation} custom={208}/>
<m.path  d="M1230 831 c0 -8 -7 -10 -21 -6 -20 7 -20 6 -2 -12 18 -18 18 -18 26
1 4 10 5 21 2 24 -3 3 -5 0 -5 -7z" / variants={animation} custom={209}/>
<m.path  d="M2325 820 c11 -5 36 -8 55 -8 l35 0 -30 8 c-16 4 -41 8 -55 8 -23 1
-23 0 -5 -8z" / variants={animation} custom={210}/>
<m.path  d="M2482 815 c-11 -13 -8 -15 16 -15 25 0 30 -5 41 -41 15 -50 3 -112
-42 -208 -26 -56 -28 -71 -23 -120 4 -31 9 -86 13 -123 l5 -68 -28 -1 c-22 -1
-24 -3 -9 -6 11 -3 32 -16 47 -28 37 -32 166 -42 258 -21 36 8 55 15 43 15
-13 1 -23 3 -23 6 0 13 35 73 66 113 45 59 60 132 40 192 -35 105 -54 151 -68
168 -8 9 -21 33 -28 52 -7 19 -18 41 -23 48 -7 9 19 12 124 13 74 1 166 5 204
9 43 5 -6 6 -125 3 -149 -3 -217 -1 -290 11 -118 20 -181 20 -198 1z m286 -79
c7 -4 12 -17 12 -28 0 -18 -4 -20 -37 -14 -21 3 -68 6 -104 6 -65 0 -66 0 -61
25 4 25 5 26 91 22 48 -2 93 -7 99 -11z m-4 -54 c48 -7 50 -9 66 -52 9 -25 24
-62 33 -84 36 -81 15 -187 -47 -245 -14 -13 -23 -27 -21 -32 8 -11 -98 -22
-152 -15 -33 4 -42 3 -28 -3 11 -5 41 -10 67 -10 48 -1 73 -16 41 -24 -14 -4
-13 -5 5 -6 32 -2 27 -21 -5 -22 -77 -3 -179 4 -190 13 -18 15 -16 41 2 35 8
-4 17 -2 20 3 4 6 -2 11 -12 11 -10 1 -3 4 16 8 l33 6 -41 33 c-22 18 -38 27
-36 19 3 -7 18 -20 33 -30 l27 -17 -30 6 c-37 8 -33 4 -39 44 -3 19 -10 55
-16 78 -17 71 7 151 69 229 26 33 26 33 116 33 66 0 97 -4 113 -16 12 -8 22
-11 22 -6 0 20 -56 32 -144 32 -78 0 -95 -3 -100 -16 -4 -9 -9 -14 -12 -11 -3
3 -1 15 6 26 9 18 19 21 83 20 40 0 94 -4 121 -7z" / variants={animation} custom={211}/>
<m.path  d="M2600 608 c-49 -25 -90 -84 -90 -129 0 -23 3 -26 28 -21 15 2 24 2
20 -2 -3 -4 -14 -9 -25 -10 -50 -7 -6 -113 62 -146 39 -19 134 -28 148 -14 3
3 2 17 -3 30 -6 15 -6 24 0 24 6 0 10 -6 10 -14 0 -47 69 -2 96 63 24 57 19
73 -20 70 -19 -2 -38 0 -42 4 -4 4 12 7 35 7 42 0 43 1 37 28 -4 15 -14 33
-23 40 -9 6 -14 12 -10 12 4 0 3 9 -3 21 -9 16 -14 18 -26 8 -8 -6 -14 -18
-14 -25 0 -8 -4 -14 -10 -14 -15 0 -12 16 5 30 23 19 18 30 -20 46 -49 20
-104 17 -155 -8z m100 -19 c0 -16 -4 -28 -9 -25 -8 5 -3 56 5 56 2 0 4 -14 4
-31z m-57 -4 c4 -8 2 -17 -3 -20 -6 -4 -10 3 -10 14 0 25 6 27 13 6z m-66 -40
c10 -8 27 -21 38 -29 11 -8 17 -17 14 -21 -4 -3 -13 0 -21 8 -7 8 -23 19 -36
26 -12 6 -22 16 -22 21 0 14 7 12 27 -5z m216 -29 c4 -10 -9 -21 -40 -36 -70
-33 -88 -20 -23 18 65 37 57 35 63 18z m-198 -56 c-3 -5 -11 -10 -16 -10 -6 0
-7 5 -4 10 3 6 11 10 16 10 6 0 7 -4 4 -10z m195 -66 c0 -14 -3 -14 -15 -4 -8
7 -15 14 -15 16 0 2 7 4 15 4 8 0 15 -7 15 -16z m-190 -8 c0 -2 -12 -12 -27
-21 l-28 -18 19 21 c17 20 36 29 36 18z m90 -41 c0 -14 -4 -25 -10 -25 -11 0
-14 33 -3 43 11 11 13 8 13 -18z m-78 -17 c-7 -7 -12 -8 -12 -2 0 14 12 26 19
19 2 -3 -1 -11 -7 -17z" / variants={animation} custom={212}/>
<m.path  d="M3265 820 l-40 -7 45 0 c25 -1 59 3 75 7 l30 8 -35 -1 c-19 0 -53 -3
-75 -7z" / variants={animation} custom={213}/>
<m.path  d="M1328 740 c-26 -27 -48 -55 -48 -61 0 -7 15 8 34 33 19 24 45 52 58
61 12 9 19 16 14 16 -5 1 -31 -21 -58 -49z" / variants={animation} custom={214}/>
<m.path  d="M1211 768 c-1 -9 -13 -30 -27 -47 -14 -17 -22 -31 -17 -31 14 0 55
68 50 82 -4 9 -6 7 -6 -4z" / variants={animation} custom={215}/>
<m.path  d="M103 710 c0 -30 2 -43 4 -27 2 15 2 39 0 55 -2 15 -4 2 -4 -28z" / variants={animation} custom={216}/>
<m.path  d="M1545 685 c-39 -32 -29 -32 15 0 19 14 30 25 24 25 -5 -1 -22 -12
-39 -25z" / variants={animation} custom={217}/>
<m.path  d="M1145 669 c-4 -6 -5 -12 -2 -15 2 -3 7 2 10 11 7 17 1 20 -8 4z" / variants={animation} custom={218}/>
<m.path  d="M4673 635 c0 -22 2 -30 4 -17 2 12 2 30 0 40 -3 9 -5 -1 -4 -23z" / variants={animation} custom={219}/>
<m.path  d="M1457 626 c-54 -37 -87 -80 -87 -113 0 -13 -4 -23 -9 -23 -11 0 -56
68 -66 100 l-8 25 -9 -24 c-8 -22 -12 -23 -59 -18 -58 7 -79 20 -79 50 0 11
-3 18 -6 14 -4 -3 -4 -17 0 -31 7 -29 57 -49 115 -45 36 3 42 -1 75 -41 19
-25 44 -64 54 -86 11 -23 34 -52 52 -65 17 -13 48 -46 68 -74 20 -27 40 -51
44 -53 16 -7 7 -21 -14 -25 -13 -2 2 -5 32 -5 54 -1 54 -1 25 12 -32 14 -115
115 -115 140 0 8 12 29 27 48 15 18 19 26 9 18 -11 -8 -27 -27 -35 -41 -13
-22 -19 -25 -32 -15 -35 27 -59 75 -59 120 0 41 5 50 43 88 24 24 54 51 68 60
13 9 22 17 19 17 -3 0 -27 -15 -53 -33z" / variants={animation} custom={220}/>
<m.path  d="M4662 565 c0 -16 2 -22 5 -12 2 9 2 23 0 30 -3 6 -5 -1 -5 -18z" / variants={animation} custom={221}/>
<m.path  d="M111 534 c0 -21 4 -48 9 -59 6 -13 7 -1 3 35 -7 66 -13 78 -12 24z" / variants={animation} custom={222}/>
<m.path  d="M1606 520 c-31 -27 -54 -50 -49 -50 9 1 120 100 111 100 -2 0 -31
-22 -62 -50z" / variants={animation} custom={223}/>
<m.path  d="M4646 484 c-4 -20 -5 -38 -3 -40 3 -3 8 11 11 32 4 20 5 38 3 40 -3
3 -8 -11 -11 -32z" / variants={animation} custom={224}/>
<m.path  d="M130 426 c0 -8 4 -17 9 -20 5 -4 7 3 4 14 -6 23 -13 26 -13 6z" / variants={animation} custom={225}/>
<m.path  d="M4631 423 c-1 -6 -4 -20 -7 -30 -5 -17 -5 -17 6 0 6 10 9 23 6 30 -3
9 -5 9 -5 0z" / variants={animation} custom={226}/>
<m.path  d="M150 383 c0 -14 77 -83 93 -83 6 0 -2 9 -19 19 -17 10 -40 31 -52 46
-12 15 -22 23 -22 18z" / variants={animation} custom={227}/>
<m.path  d="M4606 355 c-9 -26 -7 -32 5 -12 6 10 9 21 6 23 -2 3 -7 -2 -11 -11z" / variants={animation} custom={228}/>
<m.path  d="M1767 331 c17 -14 19 -21 10 -32 -10 -11 -9 -11 5 0 13 10 22 9 48
-4 35 -18 31 -31 -14 -51 -17 -7 -24 -13 -15 -14 9 0 27 8 40 19 13 10 29 20
36 22 6 2 -21 21 -60 42 -40 20 -62 29 -50 18z" / variants={animation} custom={229}/>
<m.path  d="M268 293 c6 -2 18 -2 25 0 6 3 1 5 -13 5 -14 0 -19 -2 -12 -5z" / variants={animation} custom={230}/>
<m.path  d="M4563 274 c-9 -15 -31 -35 -48 -45 -16 -11 -25 -19 -18 -19 15 0 71
47 84 71 15 28 2 23 -18 -7z" / variants={animation} custom={231}/>
<m.path  d="M333 283 c9 -2 23 -2 30 0 6 3 -1 5 -18 5 -16 0 -22 -2 -12 -5z" / variants={animation} custom={232}/>
<m.path  d="M393 273 c9 -2 23 -2 30 0 6 3 -1 5 -18 5 -16 0 -22 -2 -12 -5z" / variants={animation} custom={233}/>
<m.path  d="M448 263 c6 -2 18 -2 25 0 6 3 1 5 -13 5 -14 0 -19 -2 -12 -5z" / variants={animation} custom={234}/>
<m.path  d="M503 253 c9 -2 23 -2 30 0 6 3 -1 5 -18 5 -16 0 -22 -2 -12 -5z" / variants={animation} custom={235}/>
<m.path  d="M568 243 c7 -3 16 -2 19 1 4 3 -2 6 -13 5 -11 0 -14 -3 -6 -6z" / variants={animation} custom={236}/>
<m.path  d="M609 237 c5 -5 21 -7 37 -5 27 3 26 4 -8 9 -22 3 -34 1 -29 -4z" / variants={animation} custom={237}/>
<m.path  d="M2363 243 c15 -2 37 -2 50 0 12 2 0 4 -28 4 -27 0 -38 -2 -22 -4z" / variants={animation} custom={238}/>
<m.path  d="M2268 233 c7 -3 16 -2 19 1 4 3 -2 6 -13 5 -11 0 -14 -3 -6 -6z" / variants={animation} custom={239}/>
<m.path  d="M703 223 c9 -2 23 -2 30 0 6 3 -1 5 -18 5 -16 0 -22 -2 -12 -5z" / variants={animation} custom={240}/>
<m.path  d="M778 213 c12 -2 30 -2 40 0 9 3 -1 5 -23 4 -22 0 -30 -2 -17 -4z" / variants={animation} custom={241}/>
<m.path  d="M1718 213 c6 -2 18 -2 25 0 6 3 1 5 -13 5 -14 0 -19 -2 -12 -5z" / variants={animation} custom={242}/>
<m.path  d="M2128 213 c17 -2 47 -2 65 0 17 2 3 4 -33 4 -36 0 -50 -2 -32 -4z" / variants={animation} custom={243}/>
<m.path  d="M893 203 c9 -2 25 -2 35 0 9 3 1 5 -18 5 -19 0 -27 -2 -17 -5z" / variants={animation} custom={244}/>
<m.path  d="M1418 203 c12 -2 32 -2 45 0 12 2 2 4 -23 4 -25 0 -35 -2 -22 -4z" / variants={animation} custom={245}/>
<m.path  d="M4415 200 l-40 -7 35 -1 c19 0 44 3 55 8 24 10 7 10 -50 0z" / variants={animation} custom={246}/>
<m.path  d="M1073 193 c59 -2 154 -2 210 0 56 1 8 3 -108 3 -115 0 -161 -2 -102
-3z" / variants={animation} custom={247}/>
<m.path  d="M2890 180 c25 -8 97 -13 89 -6 -2 2 -29 6 -59 9 -36 4 -46 3 -30 -3z" / variants={animation} custom={248}/>
<m.path  d="M4285 180 c-27 -7 -27 -8 -5 -8 14 0 36 4 50 8 20 6 21 8 5 8 -11 0
-33 -4 -50 -8z" / variants={animation} custom={249}/>
<m.path  d="M3040 160 c25 -8 107 -13 99 -6 -2 2 -31 6 -64 9 -37 3 -51 2 -35 -3z" / variants={animation} custom={250}/>
<m.path  d="M4155 160 l-40 -7 35 -1 c19 0 46 4 60 8 32 10 2 10 -55 0z" / variants={animation} custom={251}/>
<m.path  d="M3225 139 c39 -8 162 -12 154 -5 -2 2 -47 6 -99 8 -63 4 -82 3 -55
-3z" / variants={animation} custom={252}/>
<m.path  d="M4023 143 c9 -2 23 -2 30 0 6 3 -1 5 -18 5 -16 0 -22 -2 -12 -5z" / variants={animation} custom={253}/>
<m.path  d="M3897 133 c18 -2 50 -2 70 0 21 2 7 4 -32 4 -38 0 -55 -2 -38 -4z" / variants={animation} custom={254}/>
</g>
</svg>
