<?xml version="1.0" encoding="utf-8"?>
<svg xmlns="http://www.w3.org/2000/svg" width="124" height="124" viewBox="0 0 124 124" fill="none">
<path d="M88.5228 32.9164C83.3493 12.523 72.4079 6 61.9932 6C51.5786 6 40.6372 12.523 35.4637 32.9164L13 118H35.1395C38.7461 103.789 49.8631 95.8729 61.9932 95.8729C74.1234 95.8729 85.2404 103.803 88.847 118H111L88.5228 32.9164ZM61.9932 76.048C54.9421 76.048 48.5529 78.8618 43.8386 83.4237L56.536 33.9112C57.7518 29.1788 59.5483 27.6724 62.0068 27.6724C64.4652 27.6724 66.2618 29.1788 67.4775 33.9112L80.1614 83.4237C75.4471 78.8618 69.0444 76.048 61.9932 76.048Z" fill="#FA5022"/>
</svg>