<svg xmlns="http://www.w3.org/2000/svg" width="137" height="35" viewBox="0 0 137 35" fill="none">
  <path d="M48.0778 21.5965H53.0331V24.5166H44.2949V8.98706L48.0778 9.76133V21.5965Z" fill="#070A52"/>
  <path d="M70.2065 18.1455C70.2065 18.4995 70.1844 18.8682 70.1402 19.2516H61.579C61.638 20.0185 61.8813 20.6084 62.309 21.0214C62.7515 21.4195 63.2898 21.6186 63.9239 21.6186C64.8678 21.6186 65.5241 21.2204 65.8928 20.4241H69.9189C69.7125 21.2352 69.3364 21.9652 68.7907 22.6141C68.2598 23.263 67.5888 23.7718 66.7776 24.1405C65.9665 24.5092 65.0595 24.6936 64.0567 24.6936C62.8473 24.6936 61.7707 24.4355 60.8269 23.9193C59.883 23.4031 59.1456 22.6657 58.6147 21.7071C58.0838 20.7485 57.8183 19.6277 57.8183 18.3446C57.8183 17.0615 58.0764 15.9407 58.5926 14.9821C59.1235 14.0235 59.8609 13.2861 60.8047 12.7699C61.7486 12.2537 62.8326 11.9956 64.0567 11.9956C65.2512 11.9956 66.3131 12.2463 67.2422 12.7478C68.1713 13.2492 68.894 13.9645 69.4101 14.8936C69.9411 15.8227 70.2065 16.9067 70.2065 18.1455ZM66.3352 17.15C66.3352 16.5011 66.114 15.9849 65.6715 15.6015C65.2291 15.2181 64.6761 15.0263 64.0124 15.0263C63.3782 15.0263 62.84 15.2107 62.3975 15.5794C61.9698 15.9481 61.7044 16.4716 61.6011 17.15H66.3352Z" fill="#070A52"/>
  <path d="M75.1831 18.3225C75.1831 17.0542 75.419 15.9407 75.891 14.9821C76.3777 14.0235 77.0339 13.2861 77.8598 12.7699C78.6857 12.2537 79.6075 11.9956 80.6251 11.9956C81.4952 11.9956 82.2547 12.1726 82.9036 12.5266C83.5673 12.8805 84.0761 13.3451 84.43 13.9202V12.1726H88.2129V24.5166H84.43V22.769C84.0613 23.3441 83.5451 23.8087 82.8815 24.1627C82.2326 24.5166 81.4731 24.6936 80.6029 24.6936C79.6001 24.6936 78.6857 24.4355 77.8598 23.9193C77.0339 23.3884 76.3777 22.6436 75.891 21.685C75.419 20.7116 75.1831 19.5908 75.1831 18.3225ZM84.43 18.3446C84.43 17.4007 84.1646 16.656 83.6336 16.1103C83.1175 15.5646 82.4833 15.2918 81.7311 15.2918C80.979 15.2918 80.3375 15.5646 79.8065 16.1103C79.2904 16.6412 79.0323 17.3786 79.0323 18.3225C79.0323 19.2664 79.2904 20.0185 79.8065 20.5789C80.3375 21.1246 80.979 21.3974 81.7311 21.3974C82.4833 21.3974 83.1175 21.1246 83.6336 20.5789C84.1646 20.0332 84.43 19.2885 84.43 18.3446Z" fill="#070A52"/>
  <path d="M98.4655 13.9202C98.8342 13.3451 99.343 12.8805 99.9919 12.5266C100.641 12.1726 101.4 11.9956 102.27 11.9956C103.288 11.9956 104.21 12.2537 105.036 12.7699C105.862 13.2861 106.51 14.0235 106.982 14.9821C107.469 15.9407 107.712 17.0542 107.712 18.3225C107.712 19.5908 107.469 20.7116 106.982 21.685C106.51 22.6436 105.862 23.3884 105.036 23.9193C104.21 24.4355 103.288 24.6936 102.27 24.6936C101.415 24.6936 100.656 24.5166 99.9919 24.1627C99.343 23.8087 98.8342 23.3515 98.4655 22.7911V30.401H94.6826V12.1726H98.4655V13.9202ZM103.863 18.3225C103.863 17.3786 103.598 16.6412 103.067 16.1103C102.551 15.5646 101.909 15.2918 101.142 15.2918C100.39 15.2918 99.7485 15.5646 99.2176 16.1103C98.7014 16.656 98.4433 17.4007 98.4433 18.3446C98.4433 19.2885 98.7014 20.0332 99.2176 20.5789C99.7485 21.1246 100.39 21.3974 101.142 21.3974C101.894 21.3974 102.536 21.1246 103.067 20.5789C103.598 20.0185 103.863 19.2664 103.863 18.3225Z" fill="#070A52"/>
  <path d="M117.904 9.78206V24.5166H114.121V8.98706L117.904 9.78206Z" fill="#E93E3E"/>
  <path d="M131.9 12.0399C133.345 12.0399 134.496 12.5118 135.351 13.4557C136.221 14.3848 136.656 15.6679 136.656 17.3049V24.5166H132.896V17.8137C132.896 16.9878 132.682 16.3463 132.254 15.8891C131.826 15.4319 131.251 15.2033 130.529 15.2033C129.806 15.2033 129.231 15.4319 128.803 15.8891C128.375 16.3463 128.161 16.9878 128.161 17.8137V24.5166H124.379V12.1726H128.161V13.8096C128.545 13.264 129.061 12.8363 129.71 12.5266C130.359 12.2021 131.089 12.0399 131.9 12.0399Z" fill="#E93E3E"/>
  <path d="M15.8999 0L31.8 2.76523V31.8002L15.8999 34.5654V0Z" fill="#E93E3E"/>
  <path d="M0 2.76523L15.9001 0V34.5654L0 31.8002V2.76523Z" fill="#070A52"/>
  <path fill-rule="evenodd" clip-rule="evenodd" d="M31.8002 31.5238L27.6507 26.289C25.7802 23.9293 24.8449 22.7495 23.6173 21.9873C23.1218 21.6797 22.5953 21.4251 22.0464 21.228C21.0857 20.8828 20.0523 20.7815 18.4667 20.7517C18.5344 20.7435 18.6006 20.7394 18.6653 20.7394H16.1699H15.6303H13.1349C13.1996 20.7394 13.2658 20.7435 13.3335 20.7517C11.7479 20.7815 10.7145 20.8828 9.75377 21.228C9.20489 21.4251 8.67833 21.6797 8.18284 21.9873C6.95523 22.7495 6.02 23.9293 4.14952 26.289L0 31.5238V31.8003L7.26961 33.0646C10.0727 28.8861 13.3319 24.4637 15.9001 22.2249C18.4682 24.4637 21.7274 28.8861 24.5306 33.0646L31.8002 31.8003V31.5238ZM15.9001 18.6655C19.3363 18.6655 22.1219 15.8799 22.1219 12.4437C22.1219 9.00751 19.3363 6.22192 15.9001 6.22192C12.4639 6.22192 9.67831 9.00751 9.67831 12.4437C9.67831 15.8799 12.4639 18.6655 15.9001 18.6655Z" fill="white"/>
</svg>